Coordinates
version=1
nRows=8
nColumns=36
inDegrees=yes

Units are S.I. units (second, meters, Newtons, ...)
If the header above contains a line with 'inDegrees', this indicates whether rotational values are in degrees (yes) or radians (no).

endheader
time	pelvis_tilt	pelvis_list	pelvis_rotation	pelvis_tx	pelvis_ty	pelvis_tz	hip_flexion_r	hip_adduction_r	hip_rotation_r	knee_angle_r	knee_angle_r_beta	ankle_angle_r	subtalar_angle_r	mtp_angle_r	hip_flexion_l	hip_adduction_l	hip_rotation_l	knee_angle_l	knee_angle_l_beta	ankle_angle_l	subtalar_angle_l	mtp_angle_l	lumbar_extension	lumbar_bending	lumbar_rotation	arm_flex_r	arm_add_r	arm_rot_r	elbow_flex_r	pro_sup_r	arm_flex_l	arm_add_l	arm_rot_l	elbow_flex_l	pro_sup_l
      0.00000000	      5.47969024	     -5.78454025	    172.63927379	      0.37830998	      0.94474447	      0.72030958	     32.07722580	     -7.53840453	      0.47511431	     16.13468746	      0.28160342	     -7.92151796	     -8.64285155	     -7.71342939	      4.04697372	      8.80095710	      4.18425265	     15.43044223	      0.26931202	      6.85359765	    -14.46580030	     -7.71342939	     -6.50774889	     -6.41448485	      1.71658617	     -6.58150361	     -2.51873559	    -22.03832064	     30.92592276	     96.09094912	     15.82631585	    -13.94994288	     16.78774724	     25.63178751	     90.40289459
      0.01666670	      5.82214214	     -5.64442985	    173.80463189	      0.37835802	      0.94247215	      0.71652548	     33.36532059	     -7.53934867	      0.27220499	     14.69334239	      0.25644720	    -10.60953385	     -6.60173222	     -7.71266270	      4.68550972	      8.56927752	      4.98727879	     18.06024189	      0.31521068	      9.17198159	    -12.22110718	     -7.71266270	     -6.57182827	     -6.72354861	      1.08832557	     -6.12538412	     -1.65292575	    -22.31016889	     29.70386071	     94.24124721	     16.37524090	    -14.24258657	     16.03135079	     26.05220300	     88.81761558
      0.03333330	      7.00936510	     -5.71099529	    174.54603447	      0.37529140	      0.94155738	      0.71137374	     33.76076719	     -7.41317419	     -0.41575124	     11.40545954	      0.19906282	    -12.35527502	     -4.94952877	     -7.70753416	      5.32842449	      8.11660032	      4.42877552	     19.74989287	      0.34470066	      9.51026920	    -11.48538310	     -7.70753416	     -5.36410055	     -6.78606812	      0.33877172	     -6.08762330	     -0.86510792	    -22.48039003	     29.17148142	     94.26646359	     16.35030670	    -14.51518472	     16.17912559	     25.64272751	     89.09265007
      0.05000000	      8.05783611	     -5.62455242	    174.70070469	      0.37137500	      0.93903543	      0.70605193	     33.94697405	     -6.80524638	     -0.50961051	      9.49646028	      0.16574450	    -13.19141767	     -4.26387898	     -7.69724560	      5.81301232	      7.35066183	      3.06467522	     21.46536139	      0.37464123	     11.11622719	     -9.36411054	     -7.69724560	     -3.80164260	     -6.87001581	     -0.18696621	     -5.59368213	     -0.27374129	    -22.09545022	     26.89589252	     94.56645938	     15.97013890	    -14.63756459	     16.67325731	     25.21162218	     89.83755572
      0.06666670	      9.08587994	     -4.87842171	    174.45760763	      0.37033352	      0.93532529	      0.70217356	     34.49589908	     -5.31944730	     -0.74518286	      9.42854308	      0.16455912	    -13.56977187	     -4.64261260	     -7.68958045	      6.58182634	      6.03625681	      2.09734372	     24.16172009	      0.42170157	     12.52242283	     -8.41208770	     -7.68958045	     -2.27931006	     -5.92820214	     -0.18115041	     -5.46331173	     -0.42720446	    -21.28323446	     24.21662051	     94.88900053	     15.30882516	    -14.38054142	     16.84389898	     24.87446777	     90.51732526
      0.08333330	      9.69572288	     -4.09576550	    173.95131101	      0.37407004	      0.93121100	      0.69976164	     35.39675093	     -3.71612681	     -1.18255745	     11.13968942	      0.19442426	    -13.04446996	     -5.29470099	     -7.67415501	      7.64858052	      4.77300484	      1.20703313	     27.94554545	      0.48774178	     13.68287887	     -8.20037267	     -7.67415501	     -1.42614476	     -4.86336309	      0.02009193	     -4.68588627	     -1.03600556	    -18.56431796	     20.75349126	     94.30155869	     14.80782077	    -14.03073562	     16.72591419	     24.40618438	     91.36846036
      0.10000000	     10.01920894	     -3.54115865	    173.55801800	      0.37978779	      0.92741270	      0.69829591	     36.50382316	     -2.49548342	     -1.51690348	     13.39087153	      0.23371480	    -12.63631651	     -6.44002821	     -7.66878156	      9.24031310	      3.79686538	      0.55155096	     32.83222308	      0.57303039	     14.73783014	     -8.00940004	     -7.66878156	     -1.50269638	     -3.93862719	      0.85214645	     -4.32399134	     -1.40268526	    -18.06807819	     19.49966707	     94.35587743	     14.63579251	    -13.65785698	     16.77844037	     24.39603368	     92.09501400
      0.11666670	      9.96134697	     -3.22678411	    173.36635046	      0.38061969	      0.92408396	      0.69590293	     37.14178977	     -1.72719893	     -1.80958494	     15.22633009	      0.26574959	    -12.46758850	     -7.21369906	     -7.66579953	     10.64904198	      3.15805820	      0.25789358	     38.02816359	      0.66371666	     14.99793144	     -8.21586257	     -7.66579953	     -2.15999955	     -3.29507107	      1.81970166	     -3.79846122	     -1.83929421	    -17.79219627	     18.80899774	     94.35600549	     14.84336345	    -13.58106056	     16.93877163	     24.91515920	     92.61330456
